<svg xmlns="http://www.w3.org/2000/svg" width="720" height="170" viewBox="0 0 720 170" role="img" aria-labelledby="title desc">
  <title id="title">MPUFIX.de Logo</title>
  <desc id="desc">MPUFIX.de Wortmarke mit dynamischem Straßensymbol, Haken und blau-violettem Akzent.</desc>
  <defs>
    <linearGradient id="road" x1="24" y1="30" x2="145" y2="138" gradientUnits="userSpaceOnUse">
      <stop offset="0" stop-color="#07050d"/>
      <stop offset="1" stop-color="#273047"/>
    </linearGradient>
    <linearGradient id="signal" x1="25" y1="35" x2="145" y2="128" gradientUnits="userSpaceOnUse">
      <stop offset="0" stop-color="#5d2793"/>
      <stop offset="1" stop-color="#548cca"/>
    </linearGradient>
    <filter id="shadow" x="-25%" y="-25%" width="150%" height="150%">
      <feDropShadow dx="0" dy="12" stdDeviation="13" flood-color="#1d2c46" flood-opacity=".18"/>
    </filter>
  </defs>
  <g filter="url(#shadow)">
    <path d="M36 54c0-13 10-23 23-23h67c13 0 23 10 23 23v63c0 13-10 23-23 23H59c-13 0-23-10-23-23V54Z" fill="#fff"/>
    <path d="M46 59c0-10 8-18 18-18h57c10 0 18 8 18 18v53c0 10-8 18-18 18H64c-10 0-18-8-18-18V59Z" fill="url(#road)"/>
    <path d="M22 58h56c8 0 14 6 14 14s-6 14-14 14H22c-8 0-14-6-14-14s6-14 14-14Z" fill="url(#signal)"/>
    <path d="M32 100h62c8 0 14 6 14 14s-6 14-14 14H32c-8 0-14-6-14-14s6-14 14-14Z" fill="url(#signal)"/>
    <path d="M66 121c8-38 18-66 32-84" fill="none" stroke="#fff" stroke-width="9" stroke-linecap="round"/>
    <path d="M94 121c-4-33-2-62 8-86" fill="none" stroke="#f3f6fb" stroke-width="4" stroke-linecap="round" stroke-dasharray="10 12"/>
    <path d="M88 83l18 19 37-43" fill="none" stroke="#ffffff" stroke-width="10" stroke-linecap="round" stroke-linejoin="round"/>
    <circle cx="142" cy="59" r="7" fill="#548cca"/>
  </g>
  <text x="176" y="96" fill="#07050d" font-family="Poppins, Aptos, Segoe UI, Arial, sans-serif" font-size="72" font-weight="950" letter-spacing="0">MPUFIX</text>
  <text x="497" y="96" fill="#548cca" font-family="Poppins, Aptos, Segoe UI, Arial, sans-serif" font-size="42" font-weight="950">.de</text>
  <text x="181" y="132" fill="#5c6378" font-family="Poppins, Aptos, Segoe UI, Arial, sans-serif" font-size="18" font-weight="850" letter-spacing=".12em">KLAR VORBEREITET. FIX ZURÜCK.</text>
</svg>
